<svg id="visual" viewBox="0 0 600 900" width="600" height="900" xmlns="http://www.w3.org/2000/svg" xmlns:xlink="http://www.w3.org/1999/xlink" version="1.1"><rect x="0" y="0" width="600" height="900" fill="#ffffff"></rect><defs><linearGradient id="grad1_0" x1="0%" y1="0%" x2="100%" y2="100%"><stop offset="30%" stop-color="#ffffff" stop-opacity="1"></stop><stop offset="70%" stop-color="#ffffff" stop-opacity="1"></stop></linearGradient></defs><defs><linearGradient id="grad2_0" x1="0%" y1="0%" x2="100%" y2="100%"><stop offset="30%" stop-color="#ffffff" stop-opacity="1"></stop><stop offset="70%" stop-color="#ffffff" stop-opacity="1"></stop></linearGradient></defs><g transform="translate(600, 0)"><path d="M0 324.5C-23.2 335 -46.5 345.4 -55.4 314.2C-64.3 282.9 -58.9 209.9 -67.7 186.1C-76.5 162.2 -99.4 187.5 -107 185.3C-114.6 183.2 -106.8 153.5 -133.7 159.3C-160.6 165.2 -222.2 206.5 -248.6 208.6C-275 210.7 -266.3 173.6 -247.7 143C-229 112.4 -200.5 88.2 -205.8 74.9C-211.1 61.6 -250.3 59.3 -275.7 48.6C-301.2 38 -312.8 19 -324.5 0L0 0Z" fill="#06212a"></path></g><g transform="translate(0, 900)"><path d="M0 -324.5C10.4 -281.8 20.7 -239.1 43.8 -248.2C66.8 -257.2 102.5 -318.1 111 -304.9C119.5 -291.8 100.8 -204.6 94 -162.8C87.2 -121 92.5 -124.6 110.6 -131.8C128.6 -138.9 159.6 -149.5 171.6 -144C183.6 -138.5 176.6 -116.8 177.5 -102.5C178.4 -88.2 187.2 -81.4 203.9 -74.2C220.7 -67 245.4 -59.5 266.9 -47.1C288.3 -34.6 306.4 -17.3 324.5 0L0 0Z" fill="#06212a"></path></g></svg>